<?xml version="1.0" encoding="UTF-8" standalone="no"?>
<svg width="26px" height="27px" viewBox="0 0 26 27" version="1.1" xmlns="http://www.w3.org/2000/svg" xmlns:xlink="http://www.w3.org/1999/xlink">
    <!-- Generator: Sketch 44.1 (41455) - http://www.bohemiancoding.com/sketch -->
    <title>facebook-square - FontAwesome</title>
    <desc>Created with Sketch.</desc>
    <defs></defs>
    <g id="Symbols" stroke="none" stroke-width="1" fill="none" fill-rule="evenodd">
        <g id="Footer-mobile" transform="translate(-120.000000, -69.000000)" fill="#4990E2">
            <path d="M140.892857,69.4285714 C142.220989,69.4285714 143.35658,69.9001069 144.299665,70.843192 C145.24275,71.786277 145.714286,72.9218684 145.714286,74.25 L145.714286,90.3214286 C145.714286,91.6495602 145.24275,92.7851515 144.299665,93.7282366 C143.35658,94.6713217 142.220989,95.1428571 140.892857,95.1428571 L137.745536,95.1428571 L137.745536,85.1819196 L141.077009,85.1819196 L141.579241,81.2979911 L137.745536,81.2979911 L137.745536,78.8203125 C137.745536,78.1953094 137.876673,77.7265641 138.138951,77.4140625 C138.401229,77.1015609 138.911827,76.9453125 139.670759,76.9453125 L141.71317,76.9285714 L141.71317,73.4631696 C141.010041,73.3627227 140.016747,73.3125 138.733259,73.3125 C137.215394,73.3125 136.001679,73.7589241 135.092076,74.6517857 C134.182473,75.5446473 133.727679,76.8057954 133.727679,78.4352679 L133.727679,81.2979911 L130.379464,81.2979911 L130.379464,85.1819196 L133.727679,85.1819196 L133.727679,95.1428571 L124.821429,95.1428571 C123.493297,95.1428571 122.357706,94.6713217 121.414621,93.7282366 C120.471535,92.7851515 120,91.6495602 120,90.3214286 L120,74.25 C120,72.9218684 120.471535,71.786277 121.414621,70.843192 C122.357706,69.9001069 123.493297,69.4285714 124.821429,69.4285714 L140.892857,69.4285714 Z" id="facebook-square---FontAwesome"></path>
        </g>
    </g>
</svg>