<?xml version="1.0" encoding="UTF-8" standalone="no"?>
<svg width="26px" height="27px" viewBox="0 0 26 27" version="1.1" xmlns="http://www.w3.org/2000/svg" xmlns:xlink="http://www.w3.org/1999/xlink">
    <!-- Generator: Sketch 44.1 (41455) - http://www.bohemiancoding.com/sketch -->
    <title></title>
    <desc>Created with Sketch.</desc>
    <defs></defs>
    <g id="Symbols" stroke="none" stroke-width="1" fill="none" fill-rule="evenodd" fill-opacity="0.719967165">
        <g id="Footer-mobile" transform="translate(-74.000000, -69.000000)" fill="#FF0041">
            <path d="M91.1428571,82.2857143 C91.1428571,81.1026727 90.7243345,80.0926381 89.8872768,79.2555804 C89.050219,78.4185226 88.0401845,78 86.8571429,78 C85.6741012,78 84.6640667,78.4185226 83.8270089,79.2555804 C82.9899512,80.0926381 82.5714286,81.1026727 82.5714286,82.2857143 C82.5714286,83.4687559 82.9899512,84.4787905 83.8270089,85.3158482 C84.6640667,86.152906 85.6741012,86.5714286 86.8571429,86.5714286 C88.0401845,86.5714286 89.050219,86.152906 89.8872768,85.3158482 C90.7243345,84.4787905 91.1428571,83.4687559 91.1428571,82.2857143 Z M93.453125,82.2857143 C93.453125,84.1160806 92.8113903,85.6729847 91.5279018,86.9564732 C90.2444132,88.2399618 88.6875092,88.8816964 86.8571429,88.8816964 C85.0267766,88.8816964 83.4698725,88.2399618 82.1863839,86.9564732 C80.9028954,85.6729847 80.2611607,84.1160806 80.2611607,82.2857143 C80.2611607,80.455348 80.9028954,78.8984439 82.1863839,77.6149554 C83.4698725,76.3314668 85.0267766,75.6897321 86.8571429,75.6897321 C88.6875092,75.6897321 90.2444132,76.3314668 91.5279018,77.6149554 C92.8113903,78.8984439 93.453125,80.455348 93.453125,82.2857143 Z M95.2611607,75.421875 C95.2611607,75.8459843 95.1104926,76.2087039 94.8091518,76.5100446 C94.507811,76.8113854 94.1450914,76.9620536 93.7209821,76.9620536 C93.2968729,76.9620536 92.9341533,76.8113854 92.6328125,76.5100446 C92.3314717,76.2087039 92.1808036,75.8459843 92.1808036,75.421875 C92.1808036,74.9977657 92.3314717,74.6350461 92.6328125,74.3337054 C92.9341533,74.0323646 93.2968729,73.8816964 93.7209821,73.8816964 C94.1450914,73.8816964 94.507811,74.0323646 94.8091518,74.3337054 C95.1104926,74.6350461 95.2611607,74.9977657 95.2611607,75.421875 Z M86.8571429,71.7388393 C86.7790175,71.7388393 86.3521244,71.7360491 85.5764509,71.7304688 C84.8007774,71.7248884 84.2120556,71.7248884 83.8102679,71.7304688 C83.4084801,71.7360491 82.8699811,71.75279 82.1947545,71.780692 C81.5195279,71.8085939 80.9447568,71.8643969 80.4704241,71.9481027 C79.9960914,72.0318085 79.5970998,72.135044 79.2734375,72.2578125 C78.715399,72.4810279 78.2243325,72.8046854 77.8002232,73.2287946 C77.376114,73.6529039 77.0524565,74.1439704 76.8292411,74.7020089 C76.7064726,75.0256713 76.603237,75.4246628 76.5195312,75.8989955 C76.4358255,76.3733283 76.3800225,76.9480993 76.3521205,77.6233259 C76.3242186,78.2985525 76.3074777,78.8370516 76.3018973,79.2388393 C76.2963169,79.640627 76.2963169,80.2293488 76.3018973,81.0050223 C76.3074777,81.7806958 76.3102679,82.2075889 76.3102679,82.2857143 C76.3102679,82.3638397 76.3074777,82.7907327 76.3018973,83.5664062 C76.2963169,84.3420798 76.2963169,84.9308016 76.3018973,85.3325893 C76.3074777,85.734377 76.3242186,86.2728761 76.3521205,86.9481027 C76.3800225,87.6233293 76.4358255,88.1981003 76.5195312,88.672433 C76.603237,89.1467658 76.7064726,89.5457573 76.8292411,89.8694196 C77.0524565,90.4274581 77.376114,90.9185247 77.8002232,91.3426339 C78.2243325,91.7667432 78.715399,92.0904007 79.2734375,92.3136161 C79.5970998,92.4363845 79.9960914,92.5396201 80.4704241,92.6233259 C80.9447568,92.7070317 81.5195279,92.7628347 82.1947545,92.7907366 C82.8699811,92.8186385 83.4084801,92.8353794 83.8102679,92.8409598 C84.2120556,92.8465402 84.8007774,92.8465402 85.5764509,92.8409598 C86.3521244,92.8353794 86.7790175,92.8325893 86.8571429,92.8325893 C86.9352682,92.8325893 87.3621613,92.8353794 88.1378348,92.8409598 C88.9135083,92.8465402 89.5022301,92.8465402 89.9040179,92.8409598 C90.3058056,92.8353794 90.8443047,92.8186385 91.5195312,92.7907366 C92.1947578,92.7628347 92.7695289,92.7070317 93.2438616,92.6233259 C93.7181943,92.5396201 94.1171859,92.4363845 94.4408482,92.3136161 C94.9988867,92.0904007 95.4899532,91.7667432 95.9140625,91.3426339 C96.3381718,90.9185247 96.6618292,90.4274581 96.8850446,89.8694196 C97.0078131,89.5457573 97.1110487,89.1467658 97.1947545,88.672433 C97.2784602,88.1981003 97.3342633,87.6233293 97.3621652,86.9481027 C97.3900671,86.2728761 97.406808,85.734377 97.4123884,85.3325893 C97.4179688,84.9308016 97.4179688,84.3420798 97.4123884,83.5664062 C97.406808,82.7907327 97.4040179,82.3638397 97.4040179,82.2857143 C97.4040179,82.2075889 97.406808,81.7806958 97.4123884,81.0050223 C97.4179688,80.2293488 97.4179688,79.640627 97.4123884,79.2388393 C97.406808,78.8370516 97.3900671,78.2985525 97.3621652,77.6233259 C97.3342633,76.9480993 97.2784602,76.3733283 97.1947545,75.8989955 C97.1110487,75.4246628 97.0078131,75.0256713 96.8850446,74.7020089 C96.6618292,74.1439704 96.3381718,73.6529039 95.9140625,73.2287946 C95.4899532,72.8046854 94.9988867,72.4810279 94.4408482,72.2578125 C94.1171859,72.135044 93.7181943,72.0318085 93.2438616,71.9481027 C92.7695289,71.8643969 92.1947578,71.8085939 91.5195312,71.780692 C90.8443047,71.75279 90.3058056,71.7360491 89.9040179,71.7304688 C89.5022301,71.7248884 88.9135083,71.7248884 88.1378348,71.7304688 C87.3621613,71.7360491 86.9352682,71.7388393 86.8571429,71.7388393 Z M99.7142857,82.2857143 C99.7142857,84.8415306 99.6863842,86.6104862 99.6305804,87.5926339 C99.5189727,89.9140741 98.8270153,91.7109311 97.5546875,92.9832589 C96.2823597,94.2555867 94.4855027,94.9475441 92.1640625,95.0591518 C91.1819147,95.1149556 89.4129592,95.1428571 86.8571429,95.1428571 C84.3013265,95.1428571 82.532371,95.1149556 81.5502232,95.0591518 C79.228783,94.9475441 77.431926,94.2555867 76.1595982,92.9832589 C74.8872704,91.7109311 74.1953131,89.9140741 74.0837054,87.5926339 C74.0279015,86.6104862 74,84.8415306 74,82.2857143 C74,79.7298979 74.0279015,77.9609424 74.0837054,76.9787946 C74.1953131,74.6573545 74.8872704,72.8604974 76.1595982,71.5881696 C77.431926,70.3158419 79.228783,69.6238845 81.5502232,69.5122768 C82.532371,69.4564729 84.3013265,69.4285714 86.8571429,69.4285714 C89.4129592,69.4285714 91.1819147,69.4564729 92.1640625,69.5122768 C94.4855027,69.6238845 96.2823597,70.3158419 97.5546875,71.5881696 C98.8270153,72.8604974 99.5189727,74.6573545 99.6305804,76.9787946 C99.6863842,77.9609424 99.7142857,79.7298979 99.7142857,82.2857143 Z" id=""></path>
        </g>
    </g>
</svg>