<?xml version="1.0" encoding="UTF-8" standalone="no"?>
<svg width="20px" height="20px" viewBox="0 0 20 20" version="1.1" xmlns="http://www.w3.org/2000/svg" xmlns:xlink="http://www.w3.org/1999/xlink">
    <!-- Generator: Sketch 44.1 (41455) - http://www.bohemiancoding.com/sketch -->
    <title>XMLID_355_</title>
    <desc>Created with Sketch.</desc>
    <defs></defs>
    <g id="VRM2-OPDR-1-Huisstijl-toepassen-op-het-web" stroke="none" stroke-width="1" fill="none" fill-rule="evenodd">
        <g id="iPad" transform="translate(-195.000000, -342.000000)" fill-rule="nonzero" fill="#FFC917">
            <path d="M198.866468,346.806915 L198.866468,347.912591 C198.866468,348.88026 199.651504,349.66752 200.616498,349.66752 C201.546135,349.66752 202.329756,348.910971 202.36526,347.980226 C202.365797,347.927898 202.366333,347.49446 202.366431,347.218053 C202.366528,346.975047 202.563019,346.778061 202.805353,346.778061 C202.805401,346.778061 202.80545,346.778061 202.805499,346.778061 C203.047881,346.778159 203.244372,346.975292 203.244274,347.218346 C203.244274,347.24896 203.243982,347.969467 203.242714,348.007025 C203.21828,348.689386 202.933664,349.327733 202.441243,349.805284 C201.947504,350.284105 201.299461,350.547797 200.616498,350.547797 C199.16752,350.547797 197.988625,349.365683 197.988625,347.912591 L197.988625,346.806915 C197.988625,346.563812 198.185116,346.366776 198.427547,346.366776 C198.669978,346.366776 198.866468,346.563861 198.866468,346.806915 Z M199.015068,345.549048 L202.453874,345.946395 C202.512836,345.953193 202.571358,345.956567 202.629247,345.956567 C202.9758,345.956567 203.299335,345.835578 203.554397,345.607587 C203.850133,345.34321 204.013021,344.971098 204.013021,344.559813 C204.013021,343.751866 203.358687,343.018889 202.554338,342.925971 C202.31337,342.8979 202.095811,343.071314 202.068061,343.312852 C202.040312,343.554341 202.213052,343.77265 202.453874,343.800477 C202.823202,343.84317 203.135227,344.190879 203.135227,344.559813 C203.135227,344.716698 203.076655,344.85539 202.970338,344.95046 C202.862071,345.047242 202.714398,345.090326 202.554387,345.071841 L199.115581,344.674493 C198.746253,344.631849 198.434277,344.28414 198.434277,343.915206 C198.434277,343.758321 198.492848,343.61958 198.599214,343.524461 C198.707481,343.427679 198.855252,343.384644 199.015068,343.403081 L200.150461,343.534291 C200.151875,343.713525 200.263264,343.881071 200.44132,343.945086 C200.669657,344.027246 200.920866,343.908164 201.002652,343.679341 L201.392658,342.588825 C201.474493,342.360002 201.355838,342.107998 201.127647,342.025937 C200.899457,341.943924 200.648149,342.062859 200.566315,342.291682 L200.427372,342.680178 L199.115581,342.528575 C198.70358,342.480991 198.312793,342.601295 198.015155,342.867383 C197.719371,343.13176 197.556482,343.503872 197.556482,343.915206 C197.556433,344.723202 198.210817,345.45613 199.015068,345.549048 Z M211.682887,356.555734 L210.226154,356.555734 C210.219668,356.555587 210.213084,356.555587 210.2065,356.555734 L209.154161,356.555734 C209.147528,356.555587 209.140945,356.555587 209.134312,356.555734 L207.677823,356.555734 C207.435392,356.555734 207.238901,356.752769 207.238901,356.995872 C207.238901,357.238975 207.435392,357.43601 207.677823,357.43601 L208.570054,357.43601 L207.481333,361.444056 C207.41764,361.678601 207.555559,361.920531 207.789456,361.9844 C207.828081,361.994963 207.866852,362 207.905087,362 C208.098164,362 208.275147,361.871235 208.328305,361.675422 L209.479841,357.43601 L209.880723,357.43601 L211.032356,361.675422 C211.096097,361.910016 211.337407,362.048269 211.571206,361.9844 C211.805102,361.920482 211.94307,361.678601 211.879329,361.444056 L210.790559,357.43601 L211.682887,357.43601 C211.925318,357.43601 212.121809,357.238975 212.121809,356.995872 C212.121809,356.752769 211.925318,356.555734 211.682887,356.555734 Z M208.570639,352.127355 C208.328208,352.127355 208.131717,352.324391 208.131717,352.567494 C208.131717,352.810597 208.328208,353.007632 208.570639,353.007632 L211.69903,353.007632 C211.941461,353.007632 212.137951,352.810597 212.137951,352.567494 L212.137951,345.764569 C212.137951,345.521466 211.941461,345.324431 211.69903,345.324431 L207.671044,345.324431 C207.667972,345.324382 207.664851,345.324333 207.661729,345.324333 C207.541904,345.324333 207.433344,345.372455 207.354143,345.450506 C207.27304,345.530367 207.22271,345.641575 207.22271,345.764569 C207.22271,345.767699 207.22271,345.77078 207.222808,345.77391 L207.222808,348.945009 C207.222808,349.188112 207.419298,349.385147 207.661729,349.385147 C207.904161,349.385147 208.100651,349.188112 208.100651,348.945009 L208.100651,346.204708 L211.260108,346.204708 L211.260108,352.127355 L208.570639,352.127355 Z M205.867173,361.535312 C205.880634,361.778024 205.695311,361.985671 205.45327,361.999169 C205.211912,362.013106 205.004156,361.826879 204.990647,361.584167 L204.722368,356.744846 L203.401994,361.673955 C203.350493,361.866247 203.176632,361.999902 202.978093,361.999902 L197.897427,361.999902 C197.698888,361.999902 197.525026,361.866247 197.473526,361.673955 L196.146812,356.721226 L195.877216,361.584167 C195.864195,361.818565 195.670581,361.999902 195.439318,361.999902 C195.431125,361.999902 195.422883,361.999658 195.414592,361.999218 C195.172551,361.98572 194.987229,361.778024 195.000689,361.535312 L195.429174,353.806679 C195.434198,353.44156 195.563631,353.080499 195.809817,352.758612 C196.264296,352.164327 197.053087,351.780282 197.819396,351.780282 L199.084466,351.780282 C199.270667,351.780282 199.436628,351.898141 199.498467,352.074245 L200.43776,354.749406 L201.377101,352.074245 C201.43894,351.898092 201.604901,351.780282 201.791102,351.780282 L203.056123,351.780282 C203.822529,351.780282 204.611369,352.164278 205.065751,352.758465 C205.3352,353.11082 205.464731,353.510074 205.444394,353.910209 L205.867173,361.535312 Z M204.369182,353.294162 C204.095441,352.912562 203.544009,352.660559 203.056172,352.660559 L202.101907,352.660559 L200.85176,356.220886 C200.789921,356.39699 200.62396,356.51485 200.43776,356.51485 C200.251559,356.51485 200.085598,356.39699 200.023759,356.220886 L198.77371,352.660607 L197.819396,352.660607 C197.331705,352.660607 196.791783,352.921218 196.506435,353.294309 C196.376368,353.464398 196.260443,353.623043 196.332719,354.022151 L198.233982,361.119577 L202.641488,361.119577 L204.391421,354.586799 C204.39147,354.586799 204.673111,353.717771 204.369182,353.294162 Z M214.224195,343.011504 L210.677415,343.011504 C210.692875,342.966512 210.701312,342.918195 210.701312,342.867872 C210.701312,342.624769 210.504821,342.427734 210.26239,342.427734 L209.098272,342.427734 C208.855841,342.427734 208.65935,342.624769 208.65935,342.867872 C208.65935,342.918146 208.667738,342.966463 208.683247,343.011504 L205.796458,343.011504 C205.554027,343.011504 205.357536,343.208539 205.357536,343.451643 C205.357536,343.694746 205.554027,343.891781 205.796458,343.891781 L213.785322,343.891781 L213.785322,354.440184 L207.577408,354.440184 C207.334977,354.440184 207.138486,354.63722 207.138486,354.880323 C207.138486,355.123426 207.334977,355.320461 207.577408,355.320461 L214.224244,355.320461 C214.466675,355.320461 214.663166,355.123426 214.663166,354.880323 L214.663166,343.451643 C214.663117,343.208588 214.466626,343.011504 214.224195,343.011504 Z" id="XMLID_355_"></path>
        </g>
    </g>
</svg>