<?xml version="1.0" encoding="UTF-8" standalone="no"?>
<svg width="26px" height="26px" viewBox="0 0 26 26" version="1.1" xmlns="http://www.w3.org/2000/svg" xmlns:xlink="http://www.w3.org/1999/xlink">
    <!-- Generator: Sketch 44.1 (41455) - http://www.bohemiancoding.com/sketch -->
    <title>download (4)</title>
    <desc>Created with Sketch.</desc>
    <defs></defs>
    <g id="Symbols" stroke="none" stroke-width="1" fill="none" fill-rule="evenodd">
        <g id="Mobile-back-ding" transform="translate(-324.000000, -12.000000)" fill-rule="nonzero" fill="#003082">
            <g id="download-(4)" transform="translate(337.000000, 24.599237) rotate(-90.000000) translate(-337.000000, -24.599237) translate(323.500000, 11.599237)">
                <path d="M26.3186138,20.080704 L-0.177328176,20.080704 C-0.644903624,20.080704 -0.956620588,19.8028414 -0.956620588,19.3860475 C-0.956620588,18.9692536 -0.644903624,18.691391 -0.177328176,18.691391 L26.3186138,18.691391 C26.7861893,18.691391 27.0979062,18.9692536 27.0979062,19.3860475 C27.0979062,19.8028414 26.7861893,20.080704 26.3186138,20.080704 Z" id="Shape" transform="translate(13.070643, 19.386047) rotate(-25.000000) translate(-13.070643, -19.386047) "></path>
                <path d="M25.1895674,8.53435115 L1.00890585,8.53435115 C0.582188295,8.53435115 0.297709924,8.25648855 0.297709924,7.83969466 C0.297709924,7.42290076 0.582188295,7.14503817 1.00890585,7.14503817 L25.1895674,7.14503817 C25.616285,7.14503817 25.9007634,7.42290076 25.9007634,7.83969466 C25.9007634,8.25648855 25.616285,8.53435115 25.1895674,8.53435115 Z" id="Shape"></path>
                <path d="M25.1895674,1.38931298 L1.00890585,1.38931298 C0.582188295,1.38931298 0.297709924,1.11145038 0.297709924,0.694656489 C0.297709924,0.277862595 0.582188295,0 1.00890585,0 L25.1895674,0 C25.616285,0 25.9007634,0.277862595 25.9007634,0.694656489 C25.9007634,1.11145038 25.616285,1.38931298 25.1895674,1.38931298 Z" id="Shape"></path>
            </g>
        </g>
    </g>
</svg>