<?xml version="1.0" encoding="UTF-8" standalone="no"?>
<svg width="13px" height="15px" viewBox="0 0 13 15" version="1.1" xmlns="http://www.w3.org/2000/svg" xmlns:xlink="http://www.w3.org/1999/xlink">
    <!-- Generator: Sketch 44.1 (41455) - http://www.bohemiancoding.com/sketch -->
    <title>Fill 5</title>
    <desc>Created with Sketch.</desc>
    <defs></defs>
    <g id="VRM2-OPDR-1-Huisstijl-toepassen-op-het-web" stroke="none" stroke-width="1" fill="none" fill-rule="evenodd">
        <g id="iPhone-7" transform="translate(-190.000000, -317.000000)" fill="#CFCFD3">
            <g id="Group" transform="translate(190.000000, 317.000000)">
                <path d="M2.702375,6.72355526 L0.407875,6.72355526 C0.183625,6.72355526 1.77635684e-15,6.92801622 1.77635684e-15,7.17979047 L1.77635684e-15,14.5437648 C1.77635684e-15,14.795539 0.183625,15 0.407875,15 L2.702375,15 C2.92825,15 3.11025,14.795539 3.11025,14.5437648 L3.11025,7.17979047 C3.11025,6.92801622 2.92825,6.72355526 2.702375,6.72355526 M13,7.24400135 C13,6.51064549 12.4865,5.91584995 11.84625,5.89726259 L11.84625,5.89557283 L8.1445,5.89557283 C8.1445,5.89557283 9.1715,3.654951 9.1715,2.59209192 C9.1715,1.52923285 8.96675,0.782358905 8.617375,0.358229131 C8.40125,0.0675904022 8.165625,0 7.873125,0 C7.27025,0 6.940375,0.495099696 6.93875,1.01892531 L6.937125,1.01892531 C6.937125,1.01892531 6.93875,1.48529909 6.93875,1.97026022 C6.93875,2.19330855 6.578,2.82020953 6.12625,3.32375803 C5.734625,3.76309564 5.32025,4.34944238 4.665375,5.38864481 C3.861,6.66610341 3.849625,8.27644474 3.849625,8.70902332 L3.849625,13.5096316 C3.849625,13.8965867 4.093375,14.3376141 4.44275,14.3376141 L11.402625,14.3376141 L11.402625,14.3342345 C11.8885,14.3055086 12.27525,13.8560324 12.27525,13.3051707 C12.27525,12.9722879 12.1355,12.6782697 11.91775,12.4890166 C12.354875,12.4079081 12.689625,11.9837783 12.689625,11.471781 C12.689625,11.0527205 12.465375,10.6928016 12.143625,10.5305847 C12.60025,10.4004731 12.936625,9.93916864 12.936625,9.38830686 C12.936625,8.96586685 12.738375,8.5958094 12.439375,8.38627915 C12.77575,8.14971274 13,7.72727273 13,7.24400135" id="Fill-5"></path>
            </g>
        </g>
    </g>
</svg>