<?xml version="1.0" encoding="UTF-8" standalone="no"?>
<svg width="4px" height="17px" viewBox="0 0 4 17" version="1.1" xmlns="http://www.w3.org/2000/svg" xmlns:xlink="http://www.w3.org/1999/xlink">
    <!-- Generator: Sketch 44.1 (41455) - http://www.bohemiancoding.com/sketch -->
    <title>Combined Shape</title>
    <desc>Created with Sketch.</desc>
    <defs></defs>
    <g id="VRM2-OPDR-1-Huisstijl-toepassen-op-het-web" stroke="none" stroke-width="1" fill="none" fill-rule="evenodd">
        <g id="iPhone-7" transform="translate(-335.000000, -338.000000)" fill="#CFCFD3">
            <g id="Group" transform="translate(204.000000, 337.000000)">
                <g id="Group-9" transform="translate(131.000000, 1.000000)">
                    <path d="M2,4 C0.8954305,4 0,3.1045695 0,2 C0,0.8954305 0.8954305,0 2,0 C3.1045695,0 4,0.8954305 4,2 C4,3.1045695 3.1045695,4 2,4 Z M2,10 C0.8954305,10 0,9.1045695 0,8 C0,6.8954305 0.8954305,6 2,6 C3.1045695,6 4,6.8954305 4,8 C4,9.1045695 3.1045695,10 2,10 Z M2,17 C0.8954305,17 0,16.1045695 0,15 C0,13.8954305 0.8954305,13 2,13 C3.1045695,13 4,13.8954305 4,15 C4,16.1045695 3.1045695,17 2,17 Z" id="Combined-Shape"></path>
                </g>
            </g>
        </g>
    </g>
</svg>