<?xml version="1.0" encoding="UTF-8" standalone="no"?>
<svg width="52px" height="20px" viewBox="0 0 52 20" version="1.1" xmlns="http://www.w3.org/2000/svg" xmlns:xlink="http://www.w3.org/1999/xlink">
    <!-- Generator: Sketch 44.1 (41455) - http://www.bohemiancoding.com/sketch -->
    <title>nslogo</title>
    <desc>Created with Sketch.</desc>
    <defs></defs>
    <g id="Symbols" stroke="none" stroke-width="1" fill="none" fill-rule="evenodd">
        <g id="Mobile-ding" transform="translate(-27.000000, -20.000000)" fill-rule="nonzero" fill="#003082">
            <g id="Group-2">
                <g id="nslogo" transform="translate(27.000000, 20.000000)">
                    <path d="M25.4,18.4 C26.4,19.4 27.8,20 29.4,20 L41.2,20 L51.2,10 L41.2,4.4408921e-16 L35.6,4.4408921e-16 L43.6,8 L32.8,8 C32.4,8 32,7.8 31.6,7.6 L25.8,1.6 C24.8,0.6 23.4,0 21.8,0 L10,0 L0,10 L10,20 L15.6,20 L7.6,12 L18.4,12 C18.8,12 19.2,12.2 19.6,12.4 L25.4,18.4 Z M22.4,9.6 C21.4,8.6 20,8 18.4,8 L7.6,8 L11.6,4 L21.8,4 C22.2,4 22.6,4.2 23,4.4 L28.8,10.4 C29.8,11.4 31.2,12 32.8,12 L43.6,12 L39.6,16 L29.4,16 C29,16 28.6,15.8 28.2,15.6 L22.4,9.6 Z" id="Shape"></path>
                </g>
            </g>
        </g>
    </g>
</svg>