<?xml version="1.0" encoding="UTF-8" standalone="no"?>
<svg width="26px" height="26px" viewBox="0 0 26 26" version="1.1" xmlns="http://www.w3.org/2000/svg" xmlns:xlink="http://www.w3.org/1999/xlink">
    <!-- Generator: Sketch 44.1 (41455) - http://www.bohemiancoding.com/sketch -->
    <title>download</title>
    <desc>Created with Sketch.</desc>
    <defs></defs>
    <g id="Symbols" stroke="none" stroke-width="1" fill="none" fill-rule="evenodd">
        <g id="Mobile-back-ding" transform="translate(-212.000000, -12.000000)">
            <g id="Group" transform="translate(212.000000, 12.000000)">
                <g id="download">
                    <path d="M13,26 C5.8318,26 0,20.1682 0,13 C0,5.8318 5.8318,0 13,0 C20.1682,0 26,5.8318 26,13 C26,20.1682 20.1682,26 13,26 Z M13,1.3 C6.5494,1.3 1.3,6.5494 1.3,13 C1.3,19.4506 6.5494,24.7 13,24.7 C19.4506,24.7 24.7,19.4506 24.7,13 C24.7,6.5494 19.4506,1.3 13,1.3 Z" id="Shape" fill="#003082" fill-rule="nonzero"></path>
                    <g id="Group-3" transform="translate(6.175000, 3.250000)" stroke-linecap="round" stroke="#003082" stroke-linejoin="round">
                        <polygon id="Triangle" transform="translate(9.100000, 5.850000) rotate(-330.000000) translate(-9.100000, -5.850000) " points="9.1 1.3 11.7 10.4 6.5 10.4"></polygon>
                        <polygon id="Triangle" transform="translate(4.552691, 13.716441) scale(-1, -1) rotate(-330.000000) translate(-4.552691, -13.716441) " points="4.55269144 9.16644098 7.15269144 18.266441 1.95269144 18.266441"></polygon>
                    </g>
                </g>
            </g>
        </g>
    </g>
</svg>