<?xml version="1.0" encoding="UTF-8" standalone="no"?>
<svg width="22px" height="23px" viewBox="0 0 22 23" version="1.1" xmlns="http://www.w3.org/2000/svg" xmlns:xlink="http://www.w3.org/1999/xlink">
    <!-- Generator: Sketch 44.1 (41455) - http://www.bohemiancoding.com/sketch -->
    <title>002-pdf</title>
    <desc>Created with Sketch.</desc>
    <defs></defs>
    <g id="VRM2-OPDR-4-Mirco-interacties-vormgeven" stroke="none" stroke-width="1" fill="none" fill-rule="evenodd" stroke-linecap="round" stroke-linejoin="round">
        <g id="iPhone-7-Copy" transform="translate(-210.000000, -455.000000)" stroke="#003082" stroke-width="0.2" fill="#003082">
            <g id="002-pdf" transform="translate(211.000000, 456.000000)">
                <path d="M19.8750388,5.74904393 L14.4821705,0.145426357 C14.405478,0.0656847545 14.2994832,0.0206718346 14.1888889,0.0206718346 L6.15126615,0.0206718346 C5.25173127,0.0206718346 4.51994832,0.752248062 4.51994832,1.65142119 L4.51994832,7.34806202 L1.26273902,7.34806202 C0.589664083,7.34806202 0.0421705426,7.89534884 0.0421705426,8.56821705 L0.0421705426,14.6764858 C0.0421705426,15.3493023 0.589664083,15.8965891 1.26273902,15.8965891 L4.51994832,15.8965891 L4.51994832,19.5608269 C4.51994832,20.4583463 5.25173127,21.1887339 6.15126615,21.1887339 L18.3575711,21.1887339 C19.2571059,21.1887339 19.9888889,20.4587597 19.9888889,19.5618088 L19.9888889,6.03147287 C19.9888889,5.92609819 19.9481137,5.82490956 19.8750388,5.74904393 Z M14.2898191,1.11968992 L18.7168992,5.7197416 L14.2898191,5.7197416 L14.2898191,1.11968992 Z M1.26273902,15.0824289 C1.03865633,15.0824289 0.856330749,14.9003618 0.856330749,14.6764858 L0.856330749,8.56821705 C0.856330749,8.34428941 1.03865633,8.16222222 1.26273902,8.16222222 L12.2551421,8.16222222 C12.4792248,8.16222222 12.6614987,8.34428941 12.6614987,8.56821705 L12.6614987,14.6764858 C12.6614987,14.9003618 12.4792248,15.0824289 12.2551421,15.0824289 L1.26273902,15.0824289 Z M19.1747287,19.5618088 C19.1747287,20.0099742 18.8081654,20.3745736 18.3575711,20.3745736 L6.15126615,20.3745736 C5.70072351,20.3745736 5.33410853,20.0095607 5.33410853,19.5608269 L5.33410853,15.8965891 L12.2551421,15.8965891 C12.9281654,15.8965891 13.4756589,15.3493023 13.4756589,14.6764858 L13.4756589,8.56821705 C13.4756589,7.89534884 12.9281654,7.34806202 12.2551421,7.34806202 L5.33410853,7.34806202 L5.33410853,1.65142119 C5.33410853,1.20103359 5.70072351,0.834832041 6.15126615,0.834832041 L13.4756589,0.834832041 L13.4756589,6.12671835 C13.4756589,6.35162791 13.6579328,6.53390181 13.8826357,6.53390181 L19.1747287,6.53390181 L19.1747287,19.5618088 Z" id="Fill-1"></path>
                <path d="M4.90873385,10.3521447 C4.77369509,10.1765375 4.60594315,10.0624806 4.40547804,10.0099742 C4.27509044,9.97483204 3.99529716,9.9574677 3.56589147,9.9574677 L2.43297158,9.9574677 L2.43297158,13.4541085 L3.13891473,13.4541085 L3.13891473,12.1350904 L3.59922481,12.1350904 C3.91896641,12.1350904 4.1630491,12.118553 4.33157623,12.0850129 C4.45555556,12.0579845 4.57767442,12.0028424 4.69777778,11.9192765 C4.8177261,11.8357106 4.91684755,11.7208269 4.99472868,11.574677 C5.0726615,11.4283204 5.11162791,11.2478553 5.11162791,11.0332817 C5.11142119,10.7548837 5.04403101,10.5279587 4.90873385,10.3521447 Z M4.30413437,11.314677 C4.25085271,11.3926098 4.17736434,11.4497158 4.08351421,11.4864599 C3.9896124,11.5229974 3.80372093,11.5411886 3.525323,11.5411886 L3.13891473,11.5411886 L3.13891473,10.5489922 L3.48010336,10.5489922 C3.73447028,10.5489922 3.90382429,10.5568475 3.98801034,10.5728165 C4.10248062,10.5935917 4.19715762,10.6452713 4.27183463,10.7278553 C4.34651163,10.8105943 4.38408269,10.9155556 4.38408269,11.042739 C4.38408269,11.1460982 4.35741602,11.2367442 4.30413437,11.314677 Z" id="Fill-2"></path>
                <path d="M8.50573643,10.9127649 C8.42940568,10.6892506 8.3179845,10.5005168 8.17183463,10.3463049 C8.02547804,10.1920413 7.84966408,10.0846512 7.6445478,10.0242894 C7.49193798,9.97968992 7.27007752,9.9574677 6.97917313,9.9574677 L5.68878553,9.9574677 L5.68878553,13.4541085 L7.01731266,13.4541085 C7.27813953,13.4541085 7.48645995,13.429509 7.64211886,13.3802584 C7.85043928,13.3134367 8.01596899,13.2203618 8.13834625,13.1010336 C8.30041344,12.9437726 8.42537468,12.7378811 8.51281654,12.4833075 C8.58444444,12.2749871 8.62020672,12.0270801 8.62020672,11.7392248 C8.62020672,11.4115762 8.5820155,11.1362274 8.50573643,10.9127649 Z M7.81875969,12.3486822 C7.77090439,12.505323 7.70935401,12.6177778 7.63385013,12.6862016 C7.55834625,12.7544186 7.46325581,12.8031008 7.34878553,12.8315762 C7.26139535,12.8539535 7.11906977,12.8650646 6.92186047,12.8650646 L6.39472868,12.8650646 L6.39472868,10.5489922 L6.7118863,10.5489922 C6.9997416,10.5489922 7.19297158,10.5600517 7.29167959,10.5824806 C7.42351421,10.6109561 7.53250646,10.6658398 7.61829457,10.7470284 C7.70428941,10.8281654 7.77090439,10.9410336 7.81875969,11.0857364 C7.86640827,11.2302842 7.89023256,11.4378295 7.89023256,11.7083204 C7.89023256,11.9786563 7.86640827,12.1920413 7.81875969,12.3486822 Z" id="Fill-3"></path>
                <polygon id="Fill-4" points="11.6208269 10.5489922 11.6208269 9.9574677 9.22361757 9.9574677 9.22361757 13.4541085 9.92956072 13.4541085 9.92956072 11.9681654 11.389509 11.9681654 11.389509 11.3766408 9.92956072 11.3766408 9.92956072 10.5489922"></polygon>
            </g>
        </g>
    </g>
</svg>