<?xml version="1.0" encoding="UTF-8" standalone="no"?>
<svg width="26px" height="27px" viewBox="0 0 26 27" version="1.1" xmlns="http://www.w3.org/2000/svg" xmlns:xlink="http://www.w3.org/1999/xlink">
    <!-- Generator: Sketch 44.1 (41455) - http://www.bohemiancoding.com/sketch -->
    <title></title>
    <desc>Created with Sketch.</desc>
    <defs></defs>
    <g id="Symbols" stroke="none" stroke-width="1" fill="none" fill-rule="evenodd">
        <g id="Footer-mobile" transform="translate(-28.000000, -69.000000)" fill="#00D9FF">
            <path d="M49.4285714,77.4977679 C48.8035683,77.7767871 48.1283518,77.9665174 47.4029018,78.0669643 C48.1618342,77.6205335 48.6808022,76.9676382 48.9598214,76.1082589 C48.2343714,76.5323682 47.486611,76.8169636 46.7165179,76.9620536 C46.0357109,76.2254427 45.1819248,75.8571429 44.1551339,75.8571429 C43.1841469,75.8571429 42.3554722,76.2003314 41.6690848,76.8867188 C40.9826975,77.5731061 40.6395089,78.4017809 40.6395089,79.3727679 C40.6395089,79.6964302 40.6674104,79.9642847 40.7232143,80.1763393 C39.2834749,80.0982139 37.933042,79.7354943 36.671875,79.0881696 C35.410708,78.440845 34.3392901,77.5758983 33.4575893,76.4933036 C33.133927,77.0513421 32.9720982,77.642854 32.9720982,78.2678571 C32.9720982,79.5401849 33.4799056,80.5167377 34.4955357,81.1975446 C33.9709795,81.1863839 33.4129494,81.041296 32.8214286,80.7622768 L32.8214286,80.7957589 C32.8214286,81.6328167 33.1004436,82.3777869 33.6584821,83.030692 C34.2165206,83.683597 34.9028977,84.0881689 35.7176339,84.2444196 C35.3939716,84.3337058 35.1093762,84.3783482 34.8638393,84.3783482 C34.7187493,84.3783482 34.5011175,84.356027 34.2109375,84.3113839 C34.4453137,85.0145124 34.8610461,85.5948638 35.4581473,86.0524554 C36.0552485,86.5100469 36.7332551,86.7444196 37.4921875,86.7555804 C36.1975382,87.7600497 34.7410795,88.2622768 33.1227679,88.2622768 C32.8325878,88.2622768 32.5535728,88.2455359 32.2857143,88.2120536 C33.9375083,89.261166 35.7343653,89.7857143 37.6763393,89.7857143 C38.9263455,89.7857143 40.0982088,89.5876136 41.1919643,89.1914062 C42.2857198,88.7951989 43.2232104,88.2650703 44.0044643,87.6010045 C44.7857182,86.9369386 45.4581445,86.1724374 46.0217634,85.3074777 C46.5853823,84.442518 47.0039049,83.5385092 47.2773438,82.5954241 C47.5507826,81.652339 47.6875,80.7120583 47.6875,79.7745536 C47.6875,79.5736597 47.6819197,79.4229916 47.6707589,79.3225446 C48.3738874,78.82031 48.9598191,78.2120571 49.4285714,77.4977679 Z M53.7142857,74.25 L53.7142857,90.3214286 C53.7142857,91.6495602 53.2427503,92.7851515 52.2996652,93.7282366 C51.3565801,94.6713217 50.2209888,95.1428571 48.8928571,95.1428571 L32.8214286,95.1428571 C31.4932969,95.1428571 30.3577056,94.6713217 29.4146205,93.7282366 C28.4715355,92.7851515 28,91.6495602 28,90.3214286 L28,74.25 C28,72.9218684 28.4715355,71.786277 29.4146205,70.843192 C30.3577056,69.9001069 31.4932969,69.4285714 32.8214286,69.4285714 L48.8928571,69.4285714 C50.2209888,69.4285714 51.3565801,69.9001069 52.2996652,70.843192 C53.2427503,71.786277 53.7142857,72.9218684 53.7142857,74.25 Z" id=""></path>
        </g>
    </g>
</svg>