<?xml version="1.0" encoding="UTF-8" standalone="no"?>
<svg width="20px" height="20px" viewBox="0 0 20 20" version="1.1" xmlns="http://www.w3.org/2000/svg" xmlns:xlink="http://www.w3.org/1999/xlink">
    <!-- Generator: Sketch 44.1 (41455) - http://www.bohemiancoding.com/sketch -->
    <title>download (5)</title>
    <desc>Created with Sketch.</desc>
    <defs></defs>
    <g id="Symbols" stroke="none" stroke-width="1" fill="none" fill-rule="evenodd">
        <g id="Mobile-ding" transform="translate(-271.000000, -15.000000)" fill-rule="nonzero" fill="#DB0029">
            <g id="download-(5)" transform="translate(271.000000, 15.000000)">
                <path d="M19.3333333,20 C19.1626667,20 18.992,19.9346667 18.8613333,19.8053333 L0.194666667,1.13866667 C-0.0653333333,0.878666667 -0.0653333333,0.456 0.194666667,0.196 C0.454666667,-0.064 0.877333333,-0.064 1.13733333,0.196 L19.804,18.8626667 C20.064,19.1226667 20.064,19.5453333 19.804,19.8053333 C19.6746667,19.9346667 19.504,20 19.3333333,20 Z" id="Shape"></path>
                <path d="M0.666666667,20 C0.496,20 0.325333333,19.9346667 0.194666667,19.8053333 C-0.0653333333,19.5453333 -0.0653333333,19.1226667 0.194666667,18.8626667 L18.8613333,0.196 C19.1213333,-0.064 19.544,-0.064 19.804,0.196 C20.064,0.456 20.064,0.878666667 19.804,1.13866667 L1.13733333,19.8053333 C1.008,19.9346667 0.837333333,20 0.666666667,20 Z" id="Shape"></path>
            </g>
        </g>
    </g>
</svg>