<?xml version="1.0" encoding="UTF-8" standalone="no"?>
<svg width="26px" height="26px" viewBox="0 0 26 26" version="1.1" xmlns="http://www.w3.org/2000/svg" xmlns:xlink="http://www.w3.org/1999/xlink">
    <!-- Generator: Sketch 44.1 (41455) - http://www.bohemiancoding.com/sketch -->
    <title>download (3)</title>
    <desc>Created with Sketch.</desc>
    <defs></defs>
    <g id="Symbols" stroke="none" stroke-width="1" fill="none" fill-rule="evenodd">
        <g id="Mobile-back-ding" transform="translate(-267.000000, -12.000000)" fill-rule="nonzero" fill="#003082">
            <g id="Group" transform="translate(212.000000, 12.000000)">
                <g id="download-(3)" transform="translate(55.000000, 0.000000)">
                    <path d="M10.5405405,21.0810811 C4.77837838,21.0810811 0,16.3027027 0,10.5405405 C0,4.77837838 4.77837838,0 10.5405405,0 C16.3027027,0 21.0810811,4.77837838 21.0810811,10.5405405 C21.0810811,16.3027027 16.3027027,21.0810811 10.5405405,21.0810811 Z M10.5405405,1.40540541 C5.48108108,1.40540541 1.40540541,5.48108108 1.40540541,10.5405405 C1.40540541,15.6 5.48108108,19.6756757 10.5405405,19.6756757 C15.6,19.6756757 19.6756757,15.6 19.6756757,10.5405405 C19.6756757,5.48108108 15.6,1.40540541 10.5405405,1.40540541 Z" id="Shape"></path>
                    <path d="M18.2702703,16.1621622 L16.1621622,18.2702703 L23.4702703,25.5783784 C23.7513514,25.8594595 24.172973,26 24.4540541,26 C24.7351351,26 25.1567568,25.8594595 25.4378378,25.5783784 C26,25.0162162 26,24.172973 25.4378378,23.6108108 L18.2702703,16.1621622 Z" id="Shape"></path>
                </g>
            </g>
        </g>
    </g>
</svg>